<svg width="25" height="25" viewBox="0 0 25 25" fill="none" xmlns="http://www.w3.org/2000/svg">
<g clip-path="url(#clip0_370726_811)">
<path d="M17.1779 11.7842C16.3343 11.7842 15.6442 12.4488 15.6442 13.2924C15.6442 14.1359 16.3343 14.8261 17.1523 14.8261C17.9959 14.8261 18.6605 14.1359 18.6605 13.3179C18.6861 12.4488 18.0215 11.7842 17.1779 11.7842ZM17.1779 14.0592C16.7433 14.0592 16.411 13.7269 16.411 13.2924C16.411 12.8578 16.7433 12.5255 17.1779 12.5255C17.6125 12.5255 17.9448 12.8834 17.9448 13.2924C17.9448 13.7269 17.5869 14.0592 17.1779 14.0592Z" fill="#A47312"/>
<path d="M7.79654 9.58574C5.77712 9.56017 4.01331 11.2473 4.06444 13.3945C4.09 15.3884 5.75155 17.1011 7.84767 17.0755C9.89265 17.0499 11.5542 15.3884 11.5542 13.3434C11.5542 11.2729 9.89265 9.58574 7.79654 9.58574ZM7.84767 15.6184C6.49286 15.6696 5.39368 14.596 5.39368 13.2923C5.39368 11.963 6.49286 10.9405 7.71985 10.9661C8.99797 10.9661 10.046 11.9886 10.046 13.2923C10.0716 14.596 9.0491 15.5673 7.84767 15.6184Z" fill="#A47312"/>
<path d="M12.5 -0.00012207C5.59815 -0.00012207 0 5.59803 0 12.4999C0 19.4017 5.59815 24.9999 12.5 24.9999C19.4018 24.9999 25 19.4017 25 12.4999C25 5.59803 19.4018 -0.00012207 12.5 -0.00012207ZM19.683 17.3567C18.9161 17.8424 18.0726 18.0725 17.1779 18.0725C16.7945 18.0725 16.411 18.0213 16.0532 17.9191C15.1585 17.689 14.3916 17.2289 13.7525 16.5643C13.6759 16.4876 13.5992 16.3853 13.4969 16.2831C13.1646 16.7943 12.8323 17.28 12.5 17.7913C12.1677 17.28 11.8354 16.7943 11.5031 16.3087C11.4775 16.3087 11.4775 16.3342 11.4775 16.3342L11.4519 16.3598C10.6851 17.28 9.71369 17.8168 8.53782 18.0213C7.8732 18.1236 7.23414 18.098 6.59509 17.9191C5.7004 17.6635 4.93353 17.2033 4.29447 16.4876C3.68098 15.7974 3.3231 15.005 3.16973 14.0847C3.01636 13.2412 3.19529 12.4232 3.24642 12.2187C3.39979 11.6307 3.62985 11.1195 3.98773 10.6338C4.01329 10.6083 4.01329 10.5316 4.01329 10.506C3.88548 9.99475 3.62985 9.53463 3.34867 9.07451C3.27198 8.97226 3.19529 8.87001 3.11861 8.7422V8.71664C3.14417 8.71664 3.14417 8.71664 3.16973 8.71664C4.11554 8.71664 5.06134 8.71664 6.00715 8.71664C6.05828 8.71664 6.08384 8.69108 6.13496 8.66551C6.79958 8.23095 7.51533 7.89864 8.25664 7.64302C8.79345 7.46408 9.33026 7.31071 9.89263 7.20846C10.4294 7.10621 10.9662 7.02952 11.5286 7.00396C12.8579 6.90171 13.9315 7.02952 14.6472 7.13177C15.184 7.20846 15.6953 7.33627 16.2065 7.48965C17.1012 7.77083 17.9192 8.15427 18.7116 8.63995C18.7628 8.66551 18.8394 8.69108 18.9161 8.69108C19.8364 8.69108 20.7566 8.69108 21.6769 8.69108C21.7536 8.69108 21.8302 8.69108 21.9069 8.69108C21.9069 8.71664 21.9069 8.71664 21.9069 8.71664C21.8558 8.79332 21.8302 8.84445 21.7791 8.92114C21.4724 9.40682 21.1912 9.89251 21.0378 10.4549C21.0122 10.506 21.0122 10.5571 21.0634 10.6338C21.8814 11.8097 22.137 13.1134 21.8047 14.5193C21.4468 15.7207 20.7566 16.6665 19.683 17.3567Z" fill="#A47312"/>
<path d="M7.71985 11.7842C6.90185 11.7842 6.21167 12.4744 6.21167 13.2924C6.21167 14.1359 6.90185 14.8005 7.74541 14.8005C8.56341 14.8005 9.25359 14.1104 9.25359 13.2668C9.25359 12.4488 8.58897 11.7842 7.71985 11.7842ZM7.74541 14.0848C7.31085 14.0848 6.95298 13.7525 6.95298 13.2924C6.95298 12.8578 7.28529 12.5255 7.71985 12.5255C8.15441 12.5255 8.48672 12.8578 8.51228 13.2924C8.53784 13.7269 8.17997 14.0592 7.74541 14.0848Z" fill="#A47312"/>
<path d="M17.1011 9.61152C15.0562 9.66264 13.4457 11.2986 13.4202 13.3436C13.4202 15.4142 15.1073 17.1268 17.1778 17.1013C19.2484 17.1013 20.9355 15.4397 20.9355 13.3436C20.9355 11.1964 19.1717 9.56039 17.1011 9.61152ZM17.2801 15.6187C15.9253 15.6698 14.8517 14.5962 14.8517 13.2925C14.8517 11.9633 15.9508 10.9408 17.1778 10.9663C18.4559 10.9663 19.504 11.9888 19.504 13.2925C19.504 14.5706 18.4815 15.5675 17.2801 15.6187Z" fill="#A47312"/>
<path d="M13.9826 9.8671C14.8006 9.10023 15.7975 8.7168 16.9223 8.61455C15.593 8.02661 14.1871 7.77099 12.7301 7.74543C11.0941 7.71987 9.48364 7.94993 7.97546 8.58899C9.12577 8.66567 10.1227 9.04911 10.9663 9.81598C11.8098 10.5828 12.2955 11.5542 12.4744 12.679C12.6789 11.5798 13.1646 10.634 13.9826 9.8671Z" fill="#A47312"/>
</g>
<defs>
<clipPath id="clip0_370726_811">
<rect width="25" height="25" fill="white"/>
</clipPath>
</defs>
</svg>
