<svg width="97" height="22" viewBox="0 0 97 22" fill="none" xmlns="http://www.w3.org/2000/svg">
<path d="M1.56236 18.0731L0.163569 16.0633H1.17402L2.12414 17.501L3.0818 16.0633H4.0847L2.68214 18.0731L4.15634 20.1722H3.15343L2.12414 18.6341L1.09861 20.1722H0.0957031L1.56236 18.0731Z" fill="white"/>
<path d="M4.25437 16.0633H5.21957L6.06789 18.3926C6.19608 18.7245 6.28154 19.0366 6.32427 19.3288H6.35444C6.37706 19.1926 6.41853 19.0279 6.47886 18.8347C6.53918 18.6391 6.8584 17.7152 7.43652 16.0633H8.39418L6.61082 20.7183C6.28657 21.5728 5.74616 22 4.98958 22C4.79352 22 4.60249 21.9789 4.41649 21.9368V21.2458C4.54971 21.2755 4.70178 21.2904 4.8727 21.2904C5.3 21.2904 5.60037 21.0465 5.77381 20.5585L5.92839 20.1722L4.25437 16.0633Z" fill="white"/>
<path d="M13.0279 21.6248H12.2022V20.1722H9.3443V21.6248H8.52614V19.496H8.86547C9.16207 19.0774 9.39709 18.5722 9.57052 17.9802C9.74647 17.3858 9.85078 16.7468 9.88346 16.0633H12.4171V19.496H13.0279V21.6248ZM11.5462 19.496V16.732H10.6488C10.6011 17.2422 10.5005 17.745 10.3472 18.2403C10.1964 18.7357 10.0116 19.1542 9.79297 19.496H11.5462Z" fill="white"/>
<path d="M17.4995 18.1103C17.4995 18.7815 17.3248 19.3053 16.9754 19.6818C16.626 20.0582 16.1397 20.2465 15.5163 20.2465C15.1267 20.2465 14.7824 20.1598 14.4832 19.9864C14.1841 19.813 13.9541 19.5641 13.7933 19.2397C13.6324 18.9152 13.552 18.5388 13.552 18.1103C13.552 17.444 13.7254 16.9239 14.0723 16.5499C14.4192 16.1759 14.908 15.989 15.5389 15.989C16.1422 15.989 16.6198 16.1809 16.9717 16.5648C17.3236 16.9462 17.4995 17.4614 17.4995 18.1103ZM14.4644 18.1103C14.4644 19.0589 14.8201 19.5332 15.5314 19.5332C16.2352 19.5332 16.5871 19.0589 16.5871 18.1103C16.5871 17.1716 16.2327 16.7023 15.5239 16.7023C15.1519 16.7023 14.8816 16.8236 14.7132 17.0663C14.5473 17.3091 14.4644 17.657 14.4644 18.1103Z" fill="white"/>
<path d="M20.5761 18.0583V16.0633H21.4018V18.0583L23.0079 16.0633H23.943L22.3029 18.0508L24.09 20.1722H23.1135L21.4018 18.088V20.1722H20.5761V18.088L18.8681 20.1722H17.8954L19.6788 18.0508L18.0424 16.0633H18.9775L20.5761 18.0583Z" fill="white"/>
<path d="M26.5558 20.2465C25.9073 20.2465 25.3996 20.0607 25.0326 19.6892C24.6681 19.3152 24.4859 18.8013 24.4859 18.1474C24.4859 17.4762 24.6556 16.9487 24.9949 16.5648C25.3342 16.1809 25.8005 15.989 26.3937 15.989C26.9442 15.989 27.379 16.1537 27.6982 16.4831C28.0174 16.8125 28.1771 17.2657 28.1771 17.8428V18.3146H25.3983C25.4109 18.7134 25.5202 19.0205 25.7263 19.236C25.9325 19.449 26.2228 19.5555 26.5973 19.5555C26.8436 19.5555 27.0724 19.5332 27.2835 19.4886C27.4971 19.4415 27.7259 19.3647 27.9697 19.2582V19.9678C27.7535 20.0694 27.5348 20.1412 27.3137 20.1833C27.0925 20.2254 26.8398 20.2465 26.5558 20.2465ZM26.3937 16.6502C26.1122 16.6502 25.886 16.7382 25.715 16.914C25.5466 17.0899 25.4461 17.3462 25.4134 17.683H27.3061C27.3011 17.3437 27.2181 17.0874 27.0573 16.914C26.8964 16.7382 26.6752 16.6502 26.3937 16.6502Z" fill="white"/>
<path d="M30.8653 20.2465C30.2344 20.2465 29.7543 20.0657 29.425 19.7041C29.0983 19.34 28.9349 18.8186 28.9349 18.14C28.9349 17.449 29.1058 16.9177 29.4477 16.5462C29.792 16.1747 30.2884 15.989 30.9369 15.989C31.3768 15.989 31.7727 16.0694 32.1246 16.2304L31.8569 16.9326C31.4824 16.7889 31.1732 16.7171 30.9294 16.7171C30.208 16.7171 29.8473 17.1889 29.8473 18.1326C29.8473 18.5932 29.9365 18.94 30.115 19.1728C30.296 19.4031 30.5599 19.5183 30.9068 19.5183C31.3014 19.5183 31.6747 19.4217 32.0266 19.2285V19.9901C31.8682 20.0818 31.6985 20.1474 31.5176 20.187C31.3391 20.2267 31.1217 20.2465 30.8653 20.2465Z" fill="white"/>
<path d="M36.14 16.0633V16.7468H34.7827V20.1722H33.8929V16.7468H32.5355V16.0633H36.14Z" fill="white"/>
<path d="M40.5626 17.1146C40.5626 17.6001 40.2748 17.8936 39.6992 17.9951V18.0248C40.0209 18.062 40.2672 18.1623 40.4381 18.3258C40.6091 18.4892 40.6945 18.701 40.6945 18.961C40.6945 19.3499 40.5437 19.6496 40.2421 19.8601C39.943 20.0681 39.5069 20.1722 38.9338 20.1722H36.9431V16.0633H38.9262C40.0171 16.0633 40.5626 16.4137 40.5626 17.1146ZM39.7859 18.909C39.7859 18.7109 39.708 18.571 39.5521 18.4892C39.3963 18.405 39.1625 18.3629 38.8508 18.3629H37.8291V19.5257H38.8735C39.4817 19.5257 39.7859 19.3202 39.7859 18.909ZM39.6765 17.1889C39.6765 17.0255 39.6112 16.9078 39.4805 16.836C39.3523 16.7617 39.16 16.7245 38.9036 16.7245H37.8291V17.7128H38.7717C39.0683 17.7128 39.2932 17.6756 39.4465 17.6013C39.5999 17.5245 39.6765 17.3871 39.6765 17.1889Z" fill="white"/>
<path d="M43.4318 20.2465C42.7833 20.2465 42.2755 20.0607 41.9086 19.6892C41.5441 19.3152 41.3619 18.8013 41.3619 18.1474C41.3619 17.4762 41.5315 16.9487 41.8709 16.5648C42.2102 16.1809 42.6765 15.989 43.2697 15.989C43.8201 15.989 44.255 16.1537 44.5742 16.4831C44.8934 16.8125 45.053 17.2657 45.053 17.8428V18.3146H42.2743C42.2869 18.7134 42.3962 19.0205 42.6023 19.236C42.8084 19.449 43.0987 19.5555 43.4732 19.5555C43.7196 19.5555 43.9483 19.5332 44.1595 19.4886C44.3731 19.4415 44.6018 19.3647 44.8456 19.2582V19.9678C44.6295 20.0694 44.4108 20.1412 44.1896 20.1833C43.9684 20.2254 43.7158 20.2465 43.4318 20.2465ZM43.2697 16.6502C42.9881 16.6502 42.7619 16.7382 42.591 16.914C42.4226 17.0899 42.322 17.3462 42.2894 17.683H44.1821C44.177 17.3437 44.0941 17.0874 43.9332 16.914C43.7724 16.7382 43.5512 16.6502 43.2697 16.6502Z" fill="white"/>
<path d="M46.9457 16.0633V17.7128H48.9101V16.0633H49.7961V20.1722H48.9101V18.4001H46.9457V20.1722H46.0597V16.0633H46.9457Z" fill="white"/>
<path d="M51.9527 16.0633V17.7128H53.917V16.0633H54.8031V20.1722H53.917V18.4001H51.9527V20.1722H51.0667V16.0633H51.9527Z" fill="white"/>
<path d="M58.6827 20.1722L58.5055 19.6H58.4754C58.2743 19.8502 58.0719 20.0211 57.8683 20.1127C57.6647 20.2019 57.4033 20.2465 57.0841 20.2465C56.6744 20.2465 56.3539 20.1375 56.1227 19.9195C55.8939 19.7016 55.7796 19.3932 55.7796 18.9945C55.7796 18.571 55.9392 18.2515 56.2584 18.036C56.5776 17.8205 57.064 17.7029 57.7175 17.683L58.4377 17.6608V17.4416C58.4377 17.179 58.3748 16.9834 58.2491 16.8546C58.126 16.7233 57.9337 16.6577 57.6723 16.6577C57.4586 16.6577 57.2538 16.6886 57.0577 16.7505C56.8617 16.8125 56.6731 16.8855 56.4922 16.9697L56.2056 16.3456C56.4318 16.2292 56.6794 16.1413 56.9484 16.0818C57.2173 16.0199 57.4712 15.989 57.71 15.989C58.2403 15.989 58.64 16.1029 58.9089 16.3307C59.1804 16.5586 59.3161 16.9165 59.3161 17.4044V20.1722H58.6827ZM57.3631 19.5777C57.6848 19.5777 57.9425 19.4898 58.136 19.314C58.3321 19.1356 58.4301 18.8867 58.4301 18.5672V18.2106L57.8947 18.2329C57.4775 18.2477 57.1733 18.3171 56.9823 18.4409C56.7938 18.5623 56.6995 18.7493 56.6995 19.0019C56.6995 19.1852 56.7548 19.3276 56.8654 19.4291C56.976 19.5282 57.1419 19.5777 57.3631 19.5777Z" fill="white"/>
<path d="M60.9789 20.1722H59.9873L61.1485 18.4892C60.867 18.41 60.6458 18.2688 60.4849 18.0657C60.3241 17.8601 60.2436 17.6063 60.2436 17.3041C60.2436 16.9153 60.3844 16.6119 60.6659 16.3939C60.9474 16.1735 61.332 16.0633 61.8196 16.0633H63.7199V20.1722H62.8301V18.5895H61.9893L60.9789 20.1722ZM61.107 17.3115C61.107 17.5221 61.1875 17.6806 61.3483 17.7871C61.5117 17.8911 61.7304 17.9431 62.0044 17.9431H62.8301V16.7245H61.8649C61.6236 16.7245 61.4363 16.7753 61.3031 16.8769C61.1724 16.9784 61.107 17.1233 61.107 17.3115Z" fill="white"/>
<path d="M69.6883 16.0633V16.7468H67.8785V20.1722H66.9925V16.0633H69.6883Z" fill="white"/>
<path d="M73.1004 20.1722L72.9232 19.6H72.8931C72.692 19.8502 72.4896 20.0211 72.286 20.1127C72.0824 20.2019 71.821 20.2465 71.5018 20.2465C71.0921 20.2465 70.7716 20.1375 70.5404 19.9195C70.3117 19.7016 70.1973 19.3932 70.1973 18.9945C70.1973 18.571 70.3569 18.2515 70.6761 18.036C70.9953 17.8205 71.4817 17.7029 72.1352 17.683L72.8554 17.6608V17.4416C72.8554 17.179 72.7925 16.9834 72.6668 16.8546C72.5437 16.7233 72.3514 16.6577 72.09 16.6577C71.8763 16.6577 71.6715 16.6886 71.4754 16.7505C71.2794 16.8125 71.0909 16.8855 70.9099 16.9697L70.6233 16.3456C70.8496 16.2292 71.0971 16.1413 71.3661 16.0818C71.635 16.0199 71.8889 15.989 72.1277 15.989C72.6581 15.989 73.0577 16.1029 73.3267 16.3307C73.5981 16.5586 73.7338 16.9165 73.7338 17.4044V20.1722H73.1004ZM71.7808 19.5777C72.1026 19.5777 72.3602 19.4898 72.5537 19.314C72.7498 19.1356 72.8478 18.8867 72.8478 18.5672V18.2106L72.3124 18.2329C71.8952 18.2477 71.591 18.3171 71.4 18.4409C71.2115 18.5623 71.1172 18.7493 71.1172 19.0019C71.1172 19.1852 71.1725 19.3276 71.2831 19.4291C71.3937 19.5282 71.5596 19.5777 71.7808 19.5777Z" fill="white"/>
<path d="M78.3977 20.1722H77.5042V16.7468H76.3542C76.2838 17.6286 76.1883 18.3171 76.0677 18.8124C75.9495 19.3078 75.7937 19.6694 75.6002 19.8972C75.4091 20.1251 75.1603 20.239 74.8536 20.239C74.6601 20.239 74.498 20.2118 74.3673 20.1573V19.4737C74.4603 19.5084 74.5533 19.5257 74.6463 19.5257C74.9026 19.5257 75.1037 19.2421 75.2495 18.675C75.3978 18.1053 75.5134 17.2348 75.5964 16.0633H78.3977V20.1722Z" fill="white"/>
<path d="M81.4894 20.2465C80.8409 20.2465 80.3332 20.0607 79.9662 19.6892C79.6017 19.3152 79.4195 18.8013 79.4195 18.1474C79.4195 17.4762 79.5891 16.9487 79.9285 16.5648C80.2678 16.1809 80.7341 15.989 81.3273 15.989C81.8777 15.989 82.3126 16.1537 82.6318 16.4831C82.951 16.8125 83.1106 17.2657 83.1106 17.8428V18.3146H80.3319C80.3445 18.7134 80.4538 19.0205 80.6599 19.236C80.866 19.449 81.1563 19.5555 81.5309 19.5555C81.7772 19.5555 82.0059 19.5332 82.2171 19.4886C82.4307 19.4415 82.6595 19.3647 82.9033 19.2582V19.9678C82.6871 20.0694 82.4684 20.1412 82.2472 20.1833C82.026 20.2254 81.7734 20.2465 81.4894 20.2465ZM81.3273 16.6502C81.0458 16.6502 80.8195 16.7382 80.6486 16.914C80.4802 17.0899 80.3797 17.3462 80.347 17.683H82.2397C82.2347 17.3437 82.1517 17.0874 81.9908 16.914C81.83 16.7382 81.6088 16.6502 81.3273 16.6502Z" fill="white"/>
<path d="M86.2325 20.2465C85.7046 20.2465 85.2949 20.0595 85.0033 19.6855H84.9505C84.9857 20.0322 85.0033 20.2427 85.0033 20.3171V22H84.1173V16.0633H84.8337C84.8538 16.14 84.8953 16.3233 84.9581 16.6131H85.0033C85.2798 16.197 85.6946 15.989 86.2475 15.989C86.7678 15.989 87.1725 16.1747 87.4616 16.5462C87.7532 16.9177 87.8989 17.4391 87.8989 18.1103C87.8989 18.7815 87.7506 19.3053 87.454 19.6818C87.16 20.0582 86.7528 20.2465 86.2325 20.2465ZM86.0175 16.7023C85.6657 16.7023 85.408 16.8038 85.2446 17.0069C85.0838 17.21 85.0033 17.5344 85.0033 17.9802V18.1103C85.0033 18.6106 85.0838 18.9734 85.2446 19.1988C85.4055 19.4217 85.6682 19.5332 86.0326 19.5332C86.3393 19.5332 86.5756 19.4093 86.7414 19.1617C86.9073 18.914 86.9903 18.561 86.9903 18.1028C86.9903 17.6422 86.9073 17.2942 86.7414 17.0589C86.5781 16.8211 86.3368 16.7023 86.0175 16.7023Z" fill="white"/>
<path d="M90.7493 20.2465C90.1008 20.2465 89.5931 20.0607 89.2261 19.6892C88.8616 19.3152 88.6794 18.8013 88.6794 18.1474C88.6794 17.4762 88.8491 16.9487 89.1884 16.5648C89.5277 16.1809 89.994 15.989 90.5872 15.989C91.1377 15.989 91.5725 16.1537 91.8917 16.4831C92.2109 16.8125 92.3706 17.2657 92.3706 17.8428V18.3146H89.5918C89.6044 18.7134 89.7137 19.0205 89.9198 19.236C90.126 19.449 90.4163 19.5555 90.7908 19.5555C91.0371 19.5555 91.2658 19.5332 91.477 19.4886C91.6906 19.4415 91.9194 19.3647 92.1632 19.2582V19.9678C91.947 20.0694 91.7283 20.1412 91.5071 20.1833C91.2859 20.2254 91.0333 20.2465 90.7493 20.2465ZM90.5872 16.6502C90.3057 16.6502 90.0795 16.7382 89.9085 16.914C89.7401 17.0899 89.6396 17.3462 89.6069 17.683H91.4996C91.4946 17.3437 91.4116 17.0874 91.2508 16.914C91.0899 16.7382 90.8687 16.6502 90.5872 16.6502Z" fill="white"/>
<path d="M93.8033 20.1722H92.8117L93.9729 18.4892C93.6914 18.41 93.4702 18.2688 93.3094 18.0657C93.1485 17.8601 93.0681 17.6063 93.0681 17.3041C93.0681 16.9153 93.2088 16.6119 93.4903 16.3939C93.7719 16.1735 94.1564 16.0633 94.6441 16.0633H96.5443V20.1722H95.6545V18.5895H94.8137L93.8033 20.1722ZM93.9315 17.3115C93.9315 17.5221 94.0119 17.6806 94.1728 17.7871C94.3361 17.8911 94.5548 17.9431 94.8288 17.9431H95.6545V16.7245H94.6893C94.448 16.7245 94.2607 16.7753 94.1275 16.8769C93.9968 16.9784 93.9315 17.1233 93.9315 17.3115Z" fill="white"/>
<path d="M0 11.9084H6.52484C9.09814 11.9084 10.4153 10.7601 10.4153 8.57405V8.54002C10.4153 6.91538 9.5779 5.92868 7.96414 5.64798V5.49487C9.31621 5.2397 10.0228 4.37208 10.0228 2.96009V2.91756C10.0228 0.995202 8.79283 0 6.38527 0H0V11.9084ZM2.5733 4.87394V1.68419H5.61764C6.84759 1.68419 7.4582 2.21156 7.4582 3.24929V3.28332C7.4582 4.33806 6.84759 4.87394 5.61764 4.87394H2.5733ZM2.5733 10.2157V6.42203H5.69615C7.04822 6.42203 7.7199 7.05147 7.7199 8.28484V8.31887C7.7199 9.57775 7.04822 10.2157 5.69615 10.2157H2.5733Z" fill="white"/>
<path d="M12.8393 0V11.9084H15.3777V0H12.8393Z" fill="white"/>
<path d="M20.689 12.1296C22.7389 12.1296 24.2305 11.2364 24.7801 9.72236L24.9545 9.76489C24.6231 11.4151 24.972 12.1296 26.9783 12.1296C27.2313 12.1296 27.4842 12.104 27.6936 12.07L27.9902 10.5985L27.554 10.59C27.0742 10.5815 26.9347 10.4709 26.9347 9.86696V5.77557C26.9347 3.75115 25.5564 2.78146 22.6168 2.78146C19.4939 2.78146 17.915 3.98081 18.0459 6.05627L20.5494 6.26042C20.4447 4.89095 21.16 4.27001 22.5644 4.27001C23.8205 4.27001 24.4137 4.72083 24.4137 5.75006V6.25191L21.9364 6.69422C19.459 7.14504 17.8191 7.91058 17.8191 9.7819V9.80742C17.8191 11.2875 18.8484 12.1296 20.689 12.1296ZM21.7008 10.4794C20.846 10.4794 20.3837 10.1817 20.3837 9.56925V9.55224C20.3837 8.67612 21.1949 8.31887 22.7999 8.01265L24.4137 7.70643V8.12323C24.4137 9.49269 23.1489 10.4794 21.7008 10.4794Z" fill="white"/>
<path d="M30.1263 11.9084H32.6647V7.75747C32.6647 5.75005 33.6329 4.50818 35.238 4.50818C36.433 4.50818 37.0262 5.1121 37.0262 6.26892V11.9084H39.5646V5.6735C39.5646 3.80218 38.4393 2.81549 36.3458 2.81549C34.4442 2.81549 33.1444 3.63206 32.3768 5.33326L32.2023 5.25671C32.5513 4.24449 32.6734 3.64057 32.6734 2.9771H30.1263V11.9084Z" fill="white"/>
<path d="M47.1177 12.121C50.1097 12.121 51.7845 10.9472 52.0375 8.67612L49.4729 8.39542C49.3683 9.82443 48.5657 10.5474 47.1264 10.5474C45.5127 10.5474 44.6753 9.56074 44.6753 7.61287V7.19607C44.6753 5.29073 45.5214 4.32955 47.1003 4.32955C48.557 4.32955 49.3159 5.12061 49.4293 6.70273L51.959 6.42203C51.7584 4.01483 50.1446 2.76445 47.109 2.76445C43.8117 2.76445 42.0758 4.33806 42.0758 7.34918V7.45976C42.0758 10.5219 43.7942 12.121 47.1177 12.121Z" fill="white"/>
<path d="M54.5661 11.9084H57.1045V7.75747C57.1045 5.75005 58.0641 4.51669 59.6778 4.51669C60.8729 4.51669 61.4661 5.1121 61.4661 6.26892V11.9084H64.0045V5.6735C64.0045 3.80218 62.8705 2.81549 60.7857 2.81549C58.8666 2.81549 57.5756 3.63206 56.8167 5.32476L56.6335 5.25671C56.9737 4.30404 57.0958 3.59804 57.1045 2.75594V0H54.5661V11.9084Z" fill="white"/>
<path d="M69.2722 12.1296C71.3221 12.1296 72.8137 11.2364 73.3633 9.72236L73.5377 9.76489C73.2063 11.4151 73.5552 12.1296 75.5615 12.1296C75.8144 12.1296 76.0674 12.104 76.2768 12.07L76.5733 10.5985L76.1372 10.59C75.6574 10.5815 75.5179 10.4709 75.5179 9.86696V5.77557C75.5179 3.75115 74.1396 2.78146 71.1999 2.78146C68.0771 2.78146 66.4982 3.98081 66.6291 6.05627L69.1326 6.26042C69.0279 4.89095 69.7432 4.27001 71.1476 4.27001C72.4037 4.27001 72.9969 4.72083 72.9969 5.75006V6.25191L70.5196 6.69422C68.0422 7.14504 66.4023 7.91058 66.4023 9.7819V9.80742C66.4023 11.2875 67.4316 12.1296 69.2722 12.1296ZM70.284 10.4794C69.4292 10.4794 68.9669 10.1817 68.9669 9.56925V9.55224C68.9669 8.67612 69.7781 8.31887 71.3831 8.01265L72.9969 7.70643V8.12323C72.9969 9.49269 71.7321 10.4794 70.284 10.4794Z" fill="white"/>
<path d="M78.7094 11.9084H81.2478V8.17426C81.2478 5.84362 81.9893 4.98452 83.9258 4.84842L85.1732 4.75485L84.8766 2.6964C82.8267 2.84951 81.8759 3.47895 80.9338 5.33326L80.7681 5.25671C81.1781 4.06587 81.274 3.58953 81.2566 2.9771H78.7094V11.9084Z" fill="white"/>
<path d="M90.7811 12.07C92.6653 12.07 93.8952 11.2194 94.5145 9.67983L94.6977 9.73937C94.4012 10.675 94.2441 11.415 94.2354 11.9084H96.8V0H94.2616V2.42421C94.2616 3.35987 94.3924 4.1169 94.7065 5.14613L94.532 5.21418C93.9127 3.6831 92.674 2.79847 90.7811 2.79847C88.1642 2.79847 86.7859 4.35507 86.7859 7.33217V7.54482C86.7859 10.5134 88.1642 12.07 90.7811 12.07ZM91.7406 10.5389C90.1705 10.5389 89.3505 9.56074 89.3505 7.62988V7.23861C89.3505 5.29924 90.1705 4.31254 91.7406 4.31254C93.3806 4.31254 94.2616 5.35027 94.2616 7.28114V7.58735C94.2616 9.50971 93.3806 10.5389 91.7406 10.5389Z" fill="white"/>
</svg>
