<svg width="50" height="50" viewBox="0 0 50 50" fill="none" xmlns="http://www.w3.org/2000/svg">
<g clip-path="url(#clip0_191243_1051)">
<path d="M25 50C38.8071 50 50 38.8071 50 25C50 11.1929 38.8071 0 25 0C11.1929 0 0 11.1929 0 25C0 38.8071 11.1929 50 25 50Z" fill="#26A5E4"/>
<path fill-rule="evenodd" clip-rule="evenodd" d="M11.3166 24.7359L25.8961 18.4559C32.8389 15.5681 34.2815 15.0665 35.2218 15.05C35.4287 15.0463 35.8911 15.0976 36.1906 15.3406C36.4436 15.5458 36.5131 15.8231 36.5464 16.0176C36.5798 16.2121 36.6212 16.6555 36.5882 17.0018C36.212 20.9548 34.584 30.548 33.7558 34.9755C33.4053 36.849 32.7158 37.4772 32.0473 37.5386C30.5955 37.6722 29.4931 36.5791 28.0869 35.6574L22.5077 31.9098C20.0394 30.2833 21.6395 29.3893 23.0462 27.9283C23.4143 27.5458 29.811 21.7276 29.9347 21.1998C29.9497 21.1338 29.9646 20.8878 29.8184 20.7578C29.6723 20.6278 29.4564 20.6728 29.3008 20.7076C29.0801 20.7577 25.5651 23.081 18.7557 27.6776C17.7579 28.3628 16.8542 28.6966 16.0445 28.6791C15.1519 28.6598 13.4348 28.1744 12.1584 27.7595C10.5927 27.2506 9.34838 26.9815 9.45678 26.1172C9.51318 25.667 10.1331 25.2067 11.3166 24.736L11.3166 24.7359Z" fill="white"/>
</g>
<defs>
<clipPath id="clip0_191243_1051">
<rect width="50" height="50" fill="white"/>
</clipPath>
</defs>
</svg>
