<svg width="16" height="16" viewBox="0 0 16 16" fill="none" xmlns="http://www.w3.org/2000/svg">
<g clip-path="url(#clip0_124_2)">
<path d="M7.99998 4.66683C7.63331 4.66683 7.33331 4.96683 7.33331 5.3335V7.3335H5.33331C4.96665 7.3335 4.66665 7.6335 4.66665 8.00016C4.66665 8.36683 4.96665 8.66683 5.33331 8.66683H7.33331V10.6668C7.33331 11.0335 7.63331 11.3335 7.99998 11.3335C8.36665 11.3335 8.66665 11.0335 8.66665 10.6668V8.66683H10.6666C11.0333 8.66683 11.3333 8.36683 11.3333 8.00016C11.3333 7.6335 11.0333 7.3335 10.6666 7.3335H8.66665V5.3335C8.66665 4.96683 8.36665 4.66683 7.99998 4.66683ZM7.99998 1.3335C4.31998 1.3335 1.33331 4.32016 1.33331 8.00016C1.33331 11.6802 4.31998 14.6668 7.99998 14.6668C11.68 14.6668 14.6666 11.6802 14.6666 8.00016C14.6666 4.32016 11.68 1.3335 7.99998 1.3335ZM7.99998 13.3335C5.05998 13.3335 2.66665 10.9402 2.66665 8.00016C2.66665 5.06016 5.05998 2.66683 7.99998 2.66683C10.94 2.66683 13.3333 5.06016 13.3333 8.00016C13.3333 10.9402 10.94 13.3335 7.99998 13.3335Z" fill="#9873FF"/>
</g>
<defs>
<clipPath id="clip0_124_2">
<rect width="16" height="16" fill="white"/>
</clipPath>
</defs>
</svg>
