<svg width="22" height="16" viewBox="0 0 22 16" fill="none" xmlns="http://www.w3.org/2000/svg">
<path d="M4.5 6V6.5H5H7.5V7.5H5H4.5V8V10.5H3.5V8V7.5H3H0.5V6.5H3H3.5V6V3.5H4.5V6ZM17.5 4C17.5 5.93386 15.9339 7.5 14 7.5C12.0661 7.5 10.5 5.93386 10.5 4C10.5 2.06614 12.0661 0.5 14 0.5C15.9339 0.5 17.5 2.06614 17.5 4ZM6.5 14C6.5 13.5186 6.73716 13.06 7.21364 12.6202C7.69352 12.1773 8.38208 11.7882 9.18469 11.4666C10.7907 10.8233 12.7275 10.5 14 10.5C15.2725 10.5 17.2093 10.8233 18.8153 11.4666C19.6179 11.7882 20.3065 12.1773 20.7864 12.6202C21.2628 13.06 21.5 13.5186 21.5 14V15.5H6.5V14Z" fill="#C8C5D1" stroke="#C8C5D1"/>
</svg>
